<svg width="39" height="31" xmlns="http://www.w3.org/2000/svg" xmlns:xlink="http://www.w3.org/1999/xlink" xmlns:svgjs="http://svgjs.com/svgjs" viewBox="0 0.015 39 30.971" fill="#939598"><svg xmlns="http://www.w3.org/2000/svg" width="39" height="31" viewBox="1.234 1.982 37.291 29.613"><path paint-order="stroke fill markers" fill-rule="evenodd" d="M35.247 1.982H4.512c-1.805 0-3.278 1.534-3.278 3.417v22.78c0 1.877 1.466 3.417 3.278 3.417h30.735c1.8 0 3.278-1.529 3.278-3.417V5.399c0-1.877-1.466-3.417-3.278-3.417zm-.452 2.278L19.949 19.738 4.975 4.26h29.82zM3.419 27.707V5.86l10.523 10.877L3.42 27.707zm1.545 1.61l10.53-10.977 3.69 3.814a1.06 1.06 0 0 0 1.54-.004l3.598-3.75 10.473 10.918H4.965zm31.376-1.61L25.867 16.79 36.34 5.871v21.836z"/></svg></svg>