<svg width="39" height="39" xmlns="http://www.w3.org/2000/svg" xmlns:xlink="http://www.w3.org/1999/xlink" xmlns:svgjs="http://svgjs.com/svgjs" viewBox="0 0 39 38.999" fill="#939598"><svg xmlns="http://www.w3.org/2000/svg" width="39" height="39" viewBox="1.234 2.082 37.291 37.289"><path paint-order="stroke fill markers" fill-rule="evenodd" d="M27.745 9.95a2.33 2.33 0 1 1 0 4.66 2.33 2.33 0 0 1 0-4.66zm10.377 4.215c-.778-1.98-2.204-4.84-4.582-7.206-2.37-2.36-5.197-3.745-7.152-4.493a5.855 5.855 0 0 0-6.212 1.317l-5.72 5.695c-1.696 1.688-2.184 4.286-1.216 6.463.3.676.627 1.336.975 1.975L1.661 30.473a1.457 1.457 0 0 0-.427 1.03v6.411c0 .805.652 1.457 1.457 1.457H9.1c.805 0 1.457-.652 1.457-1.457v-2.622h2.622c.804 0 1.456-.653 1.456-1.457v-2.623h2.622a1.457 1.457 0 0 0 0-2.914H13.18c-.805 0-1.457.652-1.457 1.457v2.622H9.1c-.804 0-1.457.653-1.457 1.458v2.622H4.148v-4.35l12.917-12.92a1.457 1.457 0 0 0 .215-1.786 23.59 23.59 0 0 1-1.378-2.644 2.9 2.9 0 0 1 .61-3.214l5.72-5.694a2.938 2.938 0 0 1 3.116-.66c1.692.646 4.13 1.836 6.137 3.835 2.02 2.01 3.25 4.485 3.926 6.206a2.894 2.894 0 0 1-.653 3.11l-5.79 5.764a2.933 2.933 0 0 1-3.205.625c-.911-.38-1.793-.83-2.622-1.339a1.457 1.457 0 1 0-1.524 2.484 21.829 21.829 0 0 0 3.027 1.545c2.195.914 4.7.423 6.38-1.25l5.789-5.764a5.807 5.807 0 0 0 1.31-6.24z"/></svg></svg>